<svg id="visual" viewBox="0 0 900 450" width="900" height="450" xmlns="http://www.w3.org/2000/svg" xmlns:xlink="http://www.w3.org/1999/xlink" version="1.1"><path d="M0 156L82 156L82 152L164 152L164 171L245 171L245 158L327 158L327 166L409 166L409 152L491 152L491 163L573 163L573 167L655 167L655 161L736 161L736 173L818 173L818 164L900 164L900 158L900 0L900 0L818 0L818 0L736 0L736 0L655 0L655 0L573 0L573 0L491 0L491 0L409 0L409 0L327 0L327 0L245 0L245 0L164 0L164 0L82 0L82 0L0 0Z" fill="#4b1072"></path><path d="M0 142L82 142L82 134L164 134L164 131L245 131L245 152L327 152L327 129L409 129L409 140L491 140L491 153L573 153L573 137L655 137L655 123L736 123L736 149L818 149L818 126L900 126L900 142L900 0L900 0L818 0L818 0L736 0L736 0L655 0L655 0L573 0L573 0L491 0L491 0L409 0L409 0L327 0L327 0L245 0L245 0L164 0L164 0L82 0L82 0L0 0Z" fill="#5a137d"></path><path d="M0 131L82 131L82 105L164 105L164 129L245 129L245 105L327 105L327 107L409 107L409 107L491 107L491 127L573 127L573 108L655 108L655 132L736 132L736 110L818 110L818 108L900 108L900 130L900 0L900 0L818 0L818 0L736 0L736 0L655 0L655 0L573 0L573 0L491 0L491 0L409 0L409 0L327 0L327 0L245 0L245 0L164 0L164 0L82 0L82 0L0 0Z" fill="#6a1589"></path><path d="M0 105L82 105L82 99L164 99L164 92L245 92L245 112L327 112L327 109L409 109L409 89L491 89L491 101L573 101L573 93L655 93L655 88L736 88L736 96L818 96L818 98L900 98L900 109L900 0L900 0L818 0L818 0L736 0L736 0L655 0L655 0L573 0L573 0L491 0L491 0L409 0L409 0L327 0L327 0L245 0L245 0L164 0L164 0L82 0L82 0L0 0Z" fill="#7b1794"></path><path d="M0 82L82 82L82 64L164 64L164 86L245 86L245 73L327 73L327 84L409 84L409 71L491 71L491 67L573 67L573 75L655 75L655 79L736 79L736 64L818 64L818 63L900 63L900 93L900 0L900 0L818 0L818 0L736 0L736 0L655 0L655 0L573 0L573 0L491 0L491 0L409 0L409 0L327 0L327 0L245 0L245 0L164 0L164 0L82 0L82 0L0 0Z" fill="#8b199e"></path><path d="M0 57L82 57L82 48L164 48L164 55L245 55L245 57L327 57L327 68L409 68L409 49L491 49L491 72L573 72L573 70L655 70L655 59L736 59L736 74L818 74L818 60L900 60L900 44L900 0L900 0L818 0L818 0L736 0L736 0L655 0L655 0L573 0L573 0L491 0L491 0L409 0L409 0L327 0L327 0L245 0L245 0L164 0L164 0L82 0L82 0L0 0Z" fill="#9d19a9"></path><path d="M0 43L82 43L82 53L164 53L164 40L245 40L245 31L327 31L327 49L409 49L409 45L491 45L491 50L573 50L573 41L655 41L655 47L736 47L736 36L818 36L818 40L900 40L900 52L900 0L900 0L818 0L818 0L736 0L736 0L655 0L655 0L573 0L573 0L491 0L491 0L409 0L409 0L327 0L327 0L245 0L245 0L164 0L164 0L82 0L82 0L0 0Z" fill="#af1ab2"></path><path d="M0 26L82 26L82 22L164 22L164 14L245 14L245 25L327 25L327 31L409 31L409 33L491 33L491 21L573 21L573 6L655 6L655 6L736 6L736 34L818 34L818 10L900 10L900 30L900 0L900 0L818 0L818 0L736 0L736 0L655 0L655 0L573 0L573 0L491 0L491 0L409 0L409 0L327 0L327 0L245 0L245 0L164 0L164 0L82 0L82 0L0 0Z" fill="#c119bc"></path></svg>