<svg id="visual" viewBox="0 0 900 450" width="900" height="450" xmlns="http://www.w3.org/2000/svg" xmlns:xlink="http://www.w3.org/1999/xlink" version="1.1"><rect x="0" y="0" width="900" height="450" fill="#931C1C"></rect><path d="M0 174L129 169L257 114L386 126L514 126L643 136L771 132L900 167L900 0L771 0L643 0L514 0L386 0L257 0L129 0L0 0Z" fill="#9b15e8"></path><path d="M0 96L129 141L257 114L386 97L514 142L643 115L771 119L900 120L900 0L771 0L643 0L514 0L386 0L257 0L129 0L0 0Z" fill="#9213d4"></path><path d="M0 109L129 81L257 69L386 108L514 77L643 73L771 71L900 68L900 0L771 0L643 0L514 0L386 0L257 0L129 0L0 0Z" fill="#8912c0"></path><path d="M0 76L129 51L257 77L386 74L514 62L643 67L771 77L900 59L900 0L771 0L643 0L514 0L386 0L257 0L129 0L0 0Z" fill="#7f12ad"></path><path d="M0 21L129 34L257 26L386 45L514 33L643 47L771 47L900 35L900 0L771 0L643 0L514 0L386 0L257 0L129 0L0 0Z" fill="#75129a"></path></svg>