<svg id="visual" viewBox="0 0 900 600" width="900" height="600" xmlns="http://www.w3.org/2000/svg" xmlns:xlink="http://www.w3.org/1999/xlink" version="1.1"><rect x="0" y="0" width="900" height="600" fill="#9914d7"></rect><path d="M0 155L129 143L257 133L386 175L514 179L643 189L771 195L900 136L900 0L771 0L643 0L514 0L386 0L257 0L129 0L0 0Z" fill="#8912c0"></path><path d="M0 151L129 175L257 118L386 143L514 115L643 143L771 118L900 131L900 0L771 0L643 0L514 0L386 0L257 0L129 0L0 0Z" fill="#8612ba"></path><path d="M0 100L129 111L257 107L386 122L514 109L643 132L771 118L900 142L900 0L771 0L643 0L514 0L386 0L257 0L129 0L0 0Z" fill="#8212b3"></path><path d="M0 85L129 85L257 81L386 86L514 119L643 99L771 89L900 73L900 0L771 0L643 0L514 0L386 0L257 0L129 0L0 0Z" fill="#7f12ad"></path><path d="M0 60L129 62L257 60L386 73L514 58L643 77L771 52L900 79L900 0L771 0L643 0L514 0L386 0L257 0L129 0L0 0Z" fill="#7c12a7"></path><path d="M0 54L129 68L257 42L386 63L514 38L643 37L771 43L900 62L900 0L771 0L643 0L514 0L386 0L257 0L129 0L0 0Z" fill="#7812a0"></path><path d="M0 43L129 25L257 19L386 21L514 32L643 17L771 38L900 33L900 0L771 0L643 0L514 0L386 0L257 0L129 0L0 0Z" fill="#75129a"></path></svg>